<svg version="1.2" xmlns="http://www.w3.org/2000/svg" viewBox="0 0 1580 300" width="1580" height="300">
	<title>New Project</title>
	<style>
		.s0 { fill: #c41230 } 
	</style>
	<path id="Vincent Qi" class="s0" aria-label="Vincent Qi"  d="m59.1 49.7l47.1 151.1 47.6-151.1h22.4l-59 176.3h-23l-59.1-176.3zm155.6 41.5h61.8v117.8h38v17h-101.1v-17h41.6v-100.8h-40.3zm44.6-63.1q7.2 0 11.4 4.4 4.4 4.3 4.4 10.6 0 6.5-4.4 11-4.2 4.4-11.4 4.4-6.7 0-11.1-4.4-4.3-4.5-4.3-11 0-6.3 4.3-10.6 4.4-4.4 11.1-4.4zm124.1 197.9h-21.5v-134.8h18.3l1.6 18.7q8.2-10.3 20.5-15.8 12.4-5.7 24.1-5.7 19.8 0 28.8 10.5 9.1 10.5 9.1 29.2v97.9h-21.5v-82q0-13.8-1.6-22.3-1.5-8.6-6.4-12.4-4.8-4-15.1-4-7.9 0-15 3.5-6.9 3.4-12.4 8.7-5.3 5.1-8.9 10.3zm193-15.6q10.1 0 18.8-3.3 8.8-3.3 16.3-8.4l10.5 14q-8.9 7.6-21.3 11.9-12.4 4.4-24.3 4.4-20.1 0-34.3-8.6-14.1-8.7-21.5-24.3-7.4-15.7-7.4-36.9 0-20.2 7.4-36.2 7.5-16.1 21.6-25.3 14.2-9.3 34.5-9.3 12.9 0 24.1 4 11.4 3.9 20.9 11.7l-10.5 14.3q-8.6-6-17.3-9-8.5-3-17.5-3-17.4 0-28.7 13-11.2 13.1-11.2 39.8 0 18 5.1 29.3 5.2 11.3 14.2 16.7 9.1 5.2 20.6 5.2zm200.2-44.1h-90.6q0.6 15.6 6 25.6 5.4 9.8 14.2 14.6 8.8 4.6 19.2 4.6 10.4 0 18.7-3.1 8.4-3.1 17.3-9.1l10.1 14.2q-9.5 7.4-21.7 11.7-12 4.2-24.7 4.2-19.6 0-33.4-8.8-13.8-8.9-21.1-24.6-7.2-15.9-7.2-36.8 0-20.4 7.3-36.3 7.3-15.9 20.5-25 13.2-9.1 31.1-9.1 17 0 29.3 8.1 12.3 7.9 18.8 22.8 6.7 14.7 6.7 35.2 0 3.5-0.1 6.5-0.2 3-0.4 5.3zm-54-60.2q-15 0-25.1 10.6-10 10.7-11.4 32.9h70.3q-0.4-21.6-9.5-32.5-9.1-11-24.3-11zm121.6 119.9h-21.5v-134.7h18.3l1.6 18.7q8.2-10.4 20.5-15.9 12.4-5.7 24.1-5.7 19.8 0 28.8 10.5 9.1 10.5 9.1 29.2v97.9h-21.5v-82q0-13.8-1.6-22.3-1.5-8.5-6.4-12.4-4.8-4-15.1-4-7.9 0-15 3.5-6.9 3.5-12.4 8.7-5.3 5.1-8.9 10.4zm230.8-21.4l8.3 14.6q-6.9 4.6-16.8 7.2-9.8 2.5-19.3 2.5-21.8 0-33.6-11.4-11.7-11.4-11.7-29.3v-80.4h-31v-16.6h31v-30.6l21.5-2.6v33.2h46.6l-2.6 16.6h-44v80.2q0 11.2 5.9 17.1 6 5.9 19.8 5.9 7.6 0 14-1.8 6.4-1.8 11.9-4.6zm324.4-66.6q0 18.7-3.4 34.3-3.5 15.7-11.5 27.6-8 11.9-21.5 19.3 12.4 2.4 21.1 7.3 8.8 4.8 14.8 13.3 6.2 8.3 10.5 21.2l-23.4 9.3q-5.3-13.6-12-23-6.7-9.3-16.8-14-10-4.9-25.2-4.9-20.2 0-34.3-11.1-14-11.3-21.1-31.5-7.2-20.2-7.2-47.5 0-26.8 7.3-47.4 7.4-20.6 21.9-32.2 14.4-11.8 35.8-11.8 21.5 0 36 11.4 14.4 11.4 21.7 31.9 7.3 20.4 7.3 47.8zm-23 0q0-35.3-9.9-53.9-9.7-18.6-32.1-18.6-22.3 0-32.1 18.8-9.9 18.7-9.9 54 0 35.2 10.1 53.6 10.3 18.3 31.9 18.3 22.3 0 32.1-18.4 9.9-18.6 9.9-53.8zm67.1-46.8h61.8v117.7h38v17.1h-101.1v-17.1h41.6v-100.7h-40.3zm44.6-63.1q7.2 0 11.4 4.4 4.4 4.3 4.4 10.6 0 6.5-4.4 11-4.2 4.3-11.4 4.3-6.7 0-11.1-4.3-4.3-4.5-4.3-11 0-6.3 4.3-10.6 4.4-4.4 11.1-4.4z"/>
</svg>